<svg xmlns="http://www.w3.org/2000/svg" xmlns:xlink="http://www.w3.org/1999/xlink" preserveAspectRatio="xMidYMid" width="47" height="47" viewBox="0 0 47 47">
  <defs>
    <style>

      .cls-2 {
        fill: #9e9e9e;
      }
    </style>
  </defs>
  <path d="M23.500,47.000 C10.542,47.000 -0.000,36.458 -0.000,23.500 C-0.000,10.542 10.542,-0.000 23.500,-0.000 C36.458,-0.000 47.000,10.542 47.000,23.500 C47.000,36.458 36.458,47.000 23.500,47.000 ZM23.500,1.000 C11.094,1.000 1.000,11.094 1.000,23.500 C1.000,35.906 11.094,46.000 23.500,46.000 C35.906,46.000 46.000,35.906 46.000,23.500 C46.000,11.094 35.906,1.000 23.500,1.000 ZM22.010,21.996 C22.010,21.996 38.016,21.996 38.016,21.996 C38.016,21.996 38.016,23.996 38.016,23.996 C38.016,23.996 22.010,23.996 22.010,23.996 C22.010,23.996 22.010,21.996 22.010,21.996 ZM22.010,15.993 C22.010,15.993 38.016,15.993 38.016,15.993 C38.016,15.993 38.016,17.993 38.016,17.993 C38.016,17.993 22.010,17.993 22.010,17.993 C22.010,17.993 22.010,15.993 22.010,15.993 ZM22.010,9.989 C22.010,9.989 38.016,9.989 38.016,9.989 C38.016,9.989 38.016,11.989 38.016,11.989 C38.016,11.989 22.010,11.989 22.010,11.989 C22.010,11.989 22.010,9.989 22.010,9.989 ZM17.996,22.989 C17.996,22.989 10.996,22.989 10.996,22.989 C9.893,22.989 8.996,22.094 8.996,20.989 C8.996,20.989 8.996,11.989 8.996,11.989 C8.996,10.885 9.893,9.989 10.996,9.989 C10.996,9.989 17.996,9.989 17.996,9.989 C19.102,9.989 19.996,10.885 19.996,11.989 C19.996,11.989 19.996,20.989 19.996,20.989 C19.996,22.094 19.102,22.989 17.996,22.989 ZM18.996,11.989 C18.996,11.437 18.548,10.989 17.996,10.989 C17.996,10.989 10.996,10.989 10.996,10.989 C10.444,10.989 9.996,11.437 9.996,11.989 C9.996,11.989 9.996,20.989 9.996,20.989 C9.996,21.541 10.444,21.989 10.996,21.989 C10.996,21.989 17.996,21.989 17.996,21.989 C18.548,21.989 18.996,21.541 18.996,20.989 C18.996,20.989 18.996,11.989 18.996,11.989 ZM38.015,29.998 C38.015,29.998 9.015,29.998 9.015,29.998 C9.015,29.998 9.015,27.998 9.015,27.998 C9.015,27.998 38.015,27.998 38.015,27.998 C38.015,27.998 38.015,29.998 38.015,29.998 ZM38.015,36.000 C38.015,36.000 9.015,36.000 9.015,36.000 C9.015,36.000 9.015,34.000 9.015,34.000 C9.015,34.000 38.015,34.000 38.015,34.000 C38.015,34.000 38.015,36.000 38.015,36.000 Z" id="path-1" class="cls-2" fill-rule="evenodd"/>
</svg>
