<svg xmlns="http://www.w3.org/2000/svg" xmlns:xlink="http://www.w3.org/1999/xlink" preserveAspectRatio="xMidYMid" width="13" height="8" viewBox="0 0 13 8">
  <defs>
    <style>

      .cls-2 {
        fill: #435993;
      }
    </style>
  </defs>
  <path d="M12.981,1.328 C12.981,1.328 7.835,6.473 7.835,6.473 C7.835,6.473 7.983,6.621 7.983,6.621 C7.983,6.621 6.643,7.961 6.643,7.961 C6.643,7.961 6.495,7.813 6.495,7.813 C6.495,7.813 6.347,7.961 6.347,7.961 C6.347,7.961 5.007,6.621 5.007,6.621 C5.007,6.621 5.155,6.473 5.155,6.473 C5.155,6.473 0.009,1.328 0.009,1.328 C0.009,1.328 1.349,-0.012 1.349,-0.012 C1.349,-0.012 6.495,5.133 6.495,5.133 C6.495,5.133 11.641,-0.012 11.641,-0.012 C11.641,-0.012 12.981,1.328 12.981,1.328 Z" id="path-1" class="cls-2" fill-rule="evenodd"/>
</svg>
