<svg xmlns="http://www.w3.org/2000/svg" xmlns:xlink="http://www.w3.org/1999/xlink" preserveAspectRatio="xMidYMid" width="47" height="47" viewBox="0 0 47 47">
  <defs>
    <style>

      .cls-2 {
        fill: #9e9e9e;
      }
    </style>
  </defs>
  <path d="M23.500,47.000 C10.542,47.000 -0.000,36.458 -0.000,23.500 C-0.000,10.542 10.542,-0.000 23.500,-0.000 C36.458,-0.000 47.000,10.542 47.000,23.500 C47.000,36.458 36.458,47.000 23.500,47.000 ZM23.500,1.000 C11.094,1.000 1.000,11.094 1.000,23.500 C1.000,35.906 11.094,46.000 23.500,46.000 C35.906,46.000 46.000,35.906 46.000,23.500 C46.000,11.094 35.906,1.000 23.500,1.000 ZM33.847,36.312 C33.847,36.312 33.469,36.344 33.469,36.344 C33.469,36.344 33.469,36.872 33.469,36.872 C33.469,37.498 32.945,38.003 32.300,38.003 C32.300,38.003 13.439,38.003 13.439,38.003 C13.439,38.003 13.348,38.011 13.348,38.011 C13.334,38.011 13.322,38.003 13.308,38.003 C13.308,38.003 13.172,38.003 13.172,38.003 C12.527,38.003 12.003,37.498 12.003,36.872 C12.003,36.872 12.003,11.151 12.003,11.151 C12.003,10.526 12.527,10.019 13.172,10.019 C13.172,10.019 13.308,10.019 13.308,10.019 C13.322,10.019 13.334,10.011 13.348,10.011 C13.348,10.011 33.847,8.311 33.847,8.311 C34.479,8.311 34.994,8.819 34.994,9.444 C34.994,9.444 34.994,35.179 34.994,35.179 C34.994,35.804 34.479,36.312 33.847,36.312 ZM13.172,11.029 C13.093,11.029 13.026,11.084 13.026,11.151 C13.026,11.151 13.026,36.872 13.026,36.872 C13.026,36.938 13.091,36.992 13.172,36.992 C13.172,36.992 31.800,36.992 31.800,36.992 C31.881,36.992 31.946,36.938 31.946,36.872 C31.946,36.872 31.946,11.151 31.946,11.151 C31.946,11.084 31.879,11.029 31.800,11.029 C31.800,11.029 13.172,11.029 13.172,11.029 ZM33.971,9.444 C33.971,9.384 33.927,9.335 33.869,9.324 C33.869,9.324 25.898,10.019 25.898,10.019 C25.898,10.019 31.800,10.019 31.800,10.019 C32.445,10.019 32.969,10.526 32.969,11.151 C32.969,11.151 32.969,35.330 32.969,35.330 C32.969,35.330 33.757,35.305 33.757,35.305 C33.757,35.305 33.802,35.301 33.802,35.301 C33.802,35.301 33.847,35.301 33.847,35.301 C33.915,35.301 33.971,35.246 33.971,35.179 C33.971,35.179 33.971,9.444 33.971,9.444 ZM27.875,33.999 C27.875,33.999 17.136,33.999 17.136,33.999 C16.511,33.999 16.005,33.464 16.005,32.800 C16.005,32.800 16.005,32.200 16.005,32.200 C16.005,31.538 16.511,31.001 17.136,31.001 C17.136,31.001 27.875,31.001 27.875,31.001 C28.500,31.001 29.006,31.538 29.006,32.200 C29.006,32.200 29.006,32.800 29.006,32.800 C29.006,33.464 28.500,33.999 27.875,33.999 ZM28.006,32.200 C28.006,32.077 27.930,32.001 27.875,32.001 C27.875,32.001 17.136,32.001 17.136,32.001 C17.081,32.001 17.005,32.077 17.005,32.200 C17.005,32.200 17.005,32.800 17.005,32.800 C17.005,32.914 17.074,32.999 17.136,32.999 C17.136,32.999 27.875,32.999 27.875,32.999 C27.936,32.999 28.006,32.914 28.006,32.800 C28.006,32.800 28.006,32.200 28.006,32.200 ZM22.500,27.000 C18.910,27.000 16.000,24.090 16.000,20.500 C16.000,16.910 18.910,14.000 22.500,14.000 C26.090,14.000 29.000,16.910 29.000,20.500 C29.000,24.090 26.090,27.000 22.500,27.000 ZM22.500,15.000 C19.462,15.000 17.000,17.462 17.000,20.500 C17.000,23.538 19.462,26.000 22.500,26.000 C25.538,26.000 28.000,23.538 28.000,20.500 C28.000,17.462 25.538,15.000 22.500,15.000 Z" id="path-1" class="cls-2" fill-rule="evenodd"/>
</svg>
